# xmcd
#
# Track frame offsets:
#	150
#	19100
#	32305
#	45910
#	63037
#	79915
#	96402
#	110317
#	124067
#	140047
#	143750
#
# Disc length: 2151 seconds
# Revision: 0
# Processed by: cddbd v1.5.2PL0 Copyright (c) Steve Scherf et al.
# Submitted via: dBpowerAMP V12.0
#
DISCID=8808650b
DTITLE=Fred Eaglesmith - Drive-In Movie
DYEAR=1995
DGENRE=Country
TTITLE0=I Like Trains
TTITLE1=49 Tons
TTITLE2=Here's the Keys
TTITLE3=Crashin' and Burnin'
TTITLE4=Wilder Than Her
TTITLE5=White Rose
TTITLE6=Good Enough
TTITLE7=Soda Machine
TTITLE8=Freight Train
TTITLE9=49 Tons (reprise)
TTITLE10=Drive-in Movie
EXTD=
EXTT0=
EXTT1=
EXTT2=
EXTT3=
EXTT4=
EXTT5=
EXTT6=
EXTT7=
EXTT8=
EXTT9=
EXTT10=
PLAYORDER=
